<svg width="17" height="17" viewBox="0 0 17 17" fill="none" xmlns="http://www.w3.org/2000/svg">
<path fill-rule="evenodd" clip-rule="evenodd" d="M5.79862 3.83505C4.2849 3.83505 3.10002 4.99789 3.10002 6.38169C3.10002 8.65255 4.5331 10.5992 6.0758 12.0261C6.83737 12.7305 7.60141 13.2854 8.17591 13.6643C8.44447 13.8414 8.6703 13.9793 8.83333 14.0751C8.99636 13.9793 9.22219 13.8414 9.49075 13.6643C10.0653 13.2854 10.8293 12.7305 11.5909 12.0261C13.1336 10.5992 14.5666 8.65255 14.5666 6.38169C14.5666 4.99789 13.3818 3.83505 11.868 3.83505C11.407 3.83505 10.9164 4.08697 10.4468 4.53979C9.98373 4.9863 9.60672 5.56753 9.38149 6.06965C9.28512 6.28448 9.07033 6.4229 8.83333 6.4229C8.59633 6.4229 8.38154 6.28448 8.28517 6.06965C8.05994 5.56753 7.68293 4.9863 7.21986 4.53979C6.75024 4.08697 6.2597 3.83505 5.79862 3.83505ZM8.83333 14.7603C8.55192 15.286 8.55174 15.2859 8.55153 15.2858L8.54947 15.2847L8.54471 15.2822L8.52845 15.2735C8.51466 15.266 8.49502 15.2553 8.46993 15.2415C8.41975 15.2137 8.34771 15.1731 8.25694 15.1201C8.07547 15.0142 7.81867 14.8584 7.51159 14.6558C6.8986 14.2515 6.07932 13.6571 5.25756 12.897C3.6336 11.395 1.90002 9.15233 1.90002 6.38169C1.90002 4.29498 3.66881 2.64441 5.79862 2.64441C6.69964 2.64441 7.47478 3.12535 8.05616 3.68593C8.34939 3.96866 8.61062 4.28767 8.83333 4.61336C9.05605 4.28767 9.31728 3.96866 9.6105 3.68593C10.1919 3.12535 10.967 2.64441 11.868 2.64441C13.9979 2.64441 15.7666 4.29498 15.7666 6.38169C15.7666 9.15233 14.0331 11.395 12.4091 12.897C11.5873 13.6571 10.7681 14.2515 10.1551 14.6558C9.848 14.8584 9.59119 15.0142 9.40972 15.1201C9.31895 15.1731 9.24691 15.2137 9.19674 15.2415C9.17164 15.2553 9.15201 15.266 9.13821 15.2735L9.12195 15.2822L9.1172 15.2847L9.11568 15.2855C9.11547 15.2857 9.11474 15.286 8.83333 14.7603ZM8.83333 14.7603L9.11474 15.286C8.93877 15.3788 8.72749 15.3785 8.55153 15.2858L8.83333 14.7603Z" fill="#1E1E1E"/>
<path fill-rule="evenodd" clip-rule="evenodd" d="M5.79862 3.83505C4.2849 3.83505 3.10002 4.99789 3.10002 6.38169C3.10002 8.65255 4.5331 10.5992 6.0758 12.0261C6.83737 12.7305 7.60141 13.2854 8.17591 13.6643C8.44447 13.8414 8.6703 13.9793 8.83333 14.0751C8.99636 13.9793 9.22219 13.8414 9.49075 13.6643C10.0653 13.2854 10.8293 12.7305 11.5909 12.0261C13.1336 10.5992 14.5666 8.65255 14.5666 6.38169C14.5666 4.99789 13.3818 3.83505 11.868 3.83505C11.407 3.83505 10.9164 4.08697 10.4468 4.53979C9.98373 4.9863 9.60672 5.56753 9.38149 6.06965C9.28512 6.28448 9.07033 6.4229 8.83333 6.4229C8.59633 6.4229 8.38154 6.28448 8.28517 6.06965C8.05994 5.56753 7.68293 4.9863 7.21986 4.53979C6.75024 4.08697 6.2597 3.83505 5.79862 3.83505ZM8.83333 14.7603C8.55192 15.286 8.55174 15.2859 8.55153 15.2858L8.54947 15.2847L8.54471 15.2822L8.52845 15.2735C8.51466 15.266 8.49502 15.2553 8.46993 15.2415C8.41975 15.2137 8.34771 15.1731 8.25694 15.1201C8.07547 15.0142 7.81867 14.8584 7.51159 14.6558C6.8986 14.2515 6.07932 13.6571 5.25756 12.897C3.6336 11.395 1.90002 9.15233 1.90002 6.38169C1.90002 4.29498 3.66881 2.64441 5.79862 2.64441C6.69964 2.64441 7.47478 3.12535 8.05616 3.68593C8.34939 3.96866 8.61062 4.28767 8.83333 4.61336C9.05605 4.28767 9.31728 3.96866 9.6105 3.68593C10.1919 3.12535 10.967 2.64441 11.868 2.64441C13.9979 2.64441 15.7666 4.29498 15.7666 6.38169C15.7666 9.15233 14.0331 11.395 12.4091 12.897C11.5873 13.6571 10.7681 14.2515 10.1551 14.6558C9.848 14.8584 9.59119 15.0142 9.40972 15.1201C9.31895 15.1731 9.24691 15.2137 9.19674 15.2415C9.17164 15.2553 9.15201 15.266 9.13821 15.2735L9.12195 15.2822L9.1172 15.2847L9.11568 15.2855C9.11547 15.2857 9.11474 15.286 8.83333 14.7603ZM8.83333 14.7603L9.11474 15.286C8.93877 15.3788 8.72749 15.3785 8.55153 15.2858L8.83333 14.7603Z" fill="black" fill-opacity="0.2"/>
<path fill-rule="evenodd" clip-rule="evenodd" d="M5.79862 3.83505C4.2849 3.83505 3.10002 4.99789 3.10002 6.38169C3.10002 8.65255 4.5331 10.5992 6.0758 12.0261C6.83737 12.7305 7.60141 13.2854 8.17591 13.6643C8.44447 13.8414 8.6703 13.9793 8.83333 14.0751C8.99636 13.9793 9.22219 13.8414 9.49075 13.6643C10.0653 13.2854 10.8293 12.7305 11.5909 12.0261C13.1336 10.5992 14.5666 8.65255 14.5666 6.38169C14.5666 4.99789 13.3818 3.83505 11.868 3.83505C11.407 3.83505 10.9164 4.08697 10.4468 4.53979C9.98373 4.9863 9.60672 5.56753 9.38149 6.06965C9.28512 6.28448 9.07033 6.4229 8.83333 6.4229C8.59633 6.4229 8.38154 6.28448 8.28517 6.06965C8.05994 5.56753 7.68293 4.9863 7.21986 4.53979C6.75024 4.08697 6.2597 3.83505 5.79862 3.83505ZM8.83333 14.7603C8.55192 15.286 8.55174 15.2859 8.55153 15.2858L8.54947 15.2847L8.54471 15.2822L8.52845 15.2735C8.51466 15.266 8.49502 15.2553 8.46993 15.2415C8.41975 15.2137 8.34771 15.1731 8.25694 15.1201C8.07547 15.0142 7.81867 14.8584 7.51159 14.6558C6.8986 14.2515 6.07932 13.6571 5.25756 12.897C3.6336 11.395 1.90002 9.15233 1.90002 6.38169C1.90002 4.29498 3.66881 2.64441 5.79862 2.64441C6.69964 2.64441 7.47478 3.12535 8.05616 3.68593C8.34939 3.96866 8.61062 4.28767 8.83333 4.61336C9.05605 4.28767 9.31728 3.96866 9.6105 3.68593C10.1919 3.12535 10.967 2.64441 11.868 2.64441C13.9979 2.64441 15.7666 4.29498 15.7666 6.38169C15.7666 9.15233 14.0331 11.395 12.4091 12.897C11.5873 13.6571 10.7681 14.2515 10.1551 14.6558C9.848 14.8584 9.59119 15.0142 9.40972 15.1201C9.31895 15.1731 9.24691 15.2137 9.19674 15.2415C9.17164 15.2553 9.15201 15.266 9.13821 15.2735L9.12195 15.2822L9.1172 15.2847L9.11568 15.2855C9.11547 15.2857 9.11474 15.286 8.83333 14.7603ZM8.83333 14.7603L9.11474 15.286C8.93877 15.3788 8.72749 15.3785 8.55153 15.2858L8.83333 14.7603Z" fill="black" fill-opacity="0.2"/>
<path fill-rule="evenodd" clip-rule="evenodd" d="M5.79862 3.83505C4.2849 3.83505 3.10002 4.99789 3.10002 6.38169C3.10002 8.65255 4.5331 10.5992 6.0758 12.0261C6.83737 12.7305 7.60141 13.2854 8.17591 13.6643C8.44447 13.8414 8.6703 13.9793 8.83333 14.0751C8.99636 13.9793 9.22219 13.8414 9.49075 13.6643C10.0653 13.2854 10.8293 12.7305 11.5909 12.0261C13.1336 10.5992 14.5666 8.65255 14.5666 6.38169C14.5666 4.99789 13.3818 3.83505 11.868 3.83505C11.407 3.83505 10.9164 4.08697 10.4468 4.53979C9.98373 4.9863 9.60672 5.56753 9.38149 6.06965C9.28512 6.28448 9.07033 6.4229 8.83333 6.4229C8.59633 6.4229 8.38154 6.28448 8.28517 6.06965C8.05994 5.56753 7.68293 4.9863 7.21986 4.53979C6.75024 4.08697 6.2597 3.83505 5.79862 3.83505ZM8.83333 14.7603C8.55192 15.286 8.55174 15.2859 8.55153 15.2858L8.54947 15.2847L8.54471 15.2822L8.52845 15.2735C8.51466 15.266 8.49502 15.2553 8.46993 15.2415C8.41975 15.2137 8.34771 15.1731 8.25694 15.1201C8.07547 15.0142 7.81867 14.8584 7.51159 14.6558C6.8986 14.2515 6.07932 13.6571 5.25756 12.897C3.6336 11.395 1.90002 9.15233 1.90002 6.38169C1.90002 4.29498 3.66881 2.64441 5.79862 2.64441C6.69964 2.64441 7.47478 3.12535 8.05616 3.68593C8.34939 3.96866 8.61062 4.28767 8.83333 4.61336C9.05605 4.28767 9.31728 3.96866 9.6105 3.68593C10.1919 3.12535 10.967 2.64441 11.868 2.64441C13.9979 2.64441 15.7666 4.29498 15.7666 6.38169C15.7666 9.15233 14.0331 11.395 12.4091 12.897C11.5873 13.6571 10.7681 14.2515 10.1551 14.6558C9.848 14.8584 9.59119 15.0142 9.40972 15.1201C9.31895 15.1731 9.24691 15.2137 9.19674 15.2415C9.17164 15.2553 9.15201 15.266 9.13821 15.2735L9.12195 15.2822L9.1172 15.2847L9.11568 15.2855C9.11547 15.2857 9.11474 15.286 8.83333 14.7603ZM8.83333 14.7603L9.11474 15.286C8.93877 15.3788 8.72749 15.3785 8.55153 15.2858L8.83333 14.7603Z" fill="black" fill-opacity="0.2"/>
<path fill-rule="evenodd" clip-rule="evenodd" d="M5.79862 3.83505C4.2849 3.83505 3.10002 4.99789 3.10002 6.38169C3.10002 8.65255 4.5331 10.5992 6.0758 12.0261C6.83737 12.7305 7.60141 13.2854 8.17591 13.6643C8.44447 13.8414 8.6703 13.9793 8.83333 14.0751C8.99636 13.9793 9.22219 13.8414 9.49075 13.6643C10.0653 13.2854 10.8293 12.7305 11.5909 12.0261C13.1336 10.5992 14.5666 8.65255 14.5666 6.38169C14.5666 4.99789 13.3818 3.83505 11.868 3.83505C11.407 3.83505 10.9164 4.08697 10.4468 4.53979C9.98373 4.9863 9.60672 5.56753 9.38149 6.06965C9.28512 6.28448 9.07033 6.4229 8.83333 6.4229C8.59633 6.4229 8.38154 6.28448 8.28517 6.06965C8.05994 5.56753 7.68293 4.9863 7.21986 4.53979C6.75024 4.08697 6.2597 3.83505 5.79862 3.83505ZM8.83333 14.7603C8.55192 15.286 8.55174 15.2859 8.55153 15.2858L8.54947 15.2847L8.54471 15.2822L8.52845 15.2735C8.51466 15.266 8.49502 15.2553 8.46993 15.2415C8.41975 15.2137 8.34771 15.1731 8.25694 15.1201C8.07547 15.0142 7.81867 14.8584 7.51159 14.6558C6.8986 14.2515 6.07932 13.6571 5.25756 12.897C3.6336 11.395 1.90002 9.15233 1.90002 6.38169C1.90002 4.29498 3.66881 2.64441 5.79862 2.64441C6.69964 2.64441 7.47478 3.12535 8.05616 3.68593C8.34939 3.96866 8.61062 4.28767 8.83333 4.61336C9.05605 4.28767 9.31728 3.96866 9.6105 3.68593C10.1919 3.12535 10.967 2.64441 11.868 2.64441C13.9979 2.64441 15.7666 4.29498 15.7666 6.38169C15.7666 9.15233 14.0331 11.395 12.4091 12.897C11.5873 13.6571 10.7681 14.2515 10.1551 14.6558C9.848 14.8584 9.59119 15.0142 9.40972 15.1201C9.31895 15.1731 9.24691 15.2137 9.19674 15.2415C9.17164 15.2553 9.15201 15.266 9.13821 15.2735L9.12195 15.2822L9.1172 15.2847L9.11568 15.2855C9.11547 15.2857 9.11474 15.286 8.83333 14.7603ZM8.83333 14.7603L9.11474 15.286C8.93877 15.3788 8.72749 15.3785 8.55153 15.2858L8.83333 14.7603Z" fill="black" fill-opacity="0.2"/>
</svg>
