<svg width="17" height="17" viewBox="0 0 17 17" fill="none" xmlns="http://www.w3.org/2000/svg">
<path fill-rule="evenodd" clip-rule="evenodd" d="M4.28553 3.86692C5.38449 2.55896 6.94203 1.90002 8.49784 1.90002C10.0534 1.90002 11.6045 2.55214 12.7103 3.86716C14.6203 6.13806 14.3238 9.48853 12.2695 11.5502L12.2688 11.551C11.103 12.7167 9.76155 14.1336 9.19875 14.7281C9.16038 14.7686 9.12563 14.8053 9.09481 14.8379C8.77132 15.183 8.2244 15.183 7.9009 14.8379C7.87007 14.8053 7.83531 14.7686 7.79693 14.7281C7.23414 14.1336 5.89267 12.7167 4.72692 11.551L4.72616 11.5502C2.67241 9.48905 2.37486 6.13172 4.28553 3.86692ZM8.49784 3.10002C7.28053 3.10002 6.06496 3.61425 5.20394 4.63927L5.20307 4.64031C3.72769 6.3887 3.92343 9.04408 5.57583 10.7028C6.64802 11.775 7.86425 13.0543 8.49784 13.723C9.13142 13.0543 10.3476 11.7751 11.4198 10.7028C13.0719 9.04448 13.2686 6.3952 11.792 4.63956C10.9245 3.60793 9.71554 3.10002 8.49784 3.10002ZM8.49784 6.74002C8.13588 6.74002 7.84451 7.0314 7.84451 7.39336C7.84451 7.75532 8.13588 8.04669 8.49784 8.04669C8.8598 8.04669 9.15117 7.75532 9.15117 7.39336C9.15117 7.0314 8.8598 6.74002 8.49784 6.74002ZM6.64451 7.39336C6.64451 6.36865 7.47314 5.54002 8.49784 5.54002C9.52254 5.54002 10.3512 6.36865 10.3512 7.39336C10.3512 8.41806 9.52254 9.24669 8.49784 9.24669C7.47314 9.24669 6.64451 8.41806 6.64451 7.39336Z" fill="#171719"/>
</svg>
