<svg xmlns="http://www.w3.org/2000/svg" width="70" height="19" viewBox="0 0 70 19">
  <defs>
    <style>
      .cls-1, .cls-2 {
        fill: #fff;
      }

      .cls-1 {
        font-size: 13px;
        font-family: NotoSansKR-Regular, Noto Sans KR;
        letter-spacing: -0.025em;
      }
    </style>
  </defs>
  <g id="일정등록" transform="translate(0 -1.817)">
    <text id="일정_등록" data-name="일정 등록" class="cls-1" transform="translate(20 16.817)"><tspan x="0" y="0">일정 등록</tspan></text>
    <path id="합치기_24" data-name="합치기 24" class="cls-2" d="M2,14a2,2,0,0,1-2-2V3A2,2,0,0,1,2,1H3V.5a.5.5,0,0,1,1,0V1h6V.5a.5.5,0,0,1,1,0V1h1a2,2,0,0,1,2,2v9a2,2,0,0,1-2,2ZM1,12a1,1,0,0,0,1,1H12a1,1,0,0,0,1-1V5.9H1ZM13,4.9V3a1,1,0,0,0-1-1H11v.5a.5.5,0,1,1-1,0V2H4v.5a.5.5,0,1,1-1,0V2H2A1,1,0,0,0,1,3V4.9Zm-2.5,5.6a.5.5,0,1,1,.5.5A.5.5,0,0,1,10.5,10.5Zm-2,0A.5.5,0,1,1,9,11,.5.5,0,0,1,8.5,10.5Zm-2,0A.5.5,0,1,1,7,11,.5.5,0,0,1,6.5,10.5Zm-2,0A.5.5,0,1,1,5,11,.5.5,0,0,1,4.5,10.5Zm-2,0A.5.5,0,1,1,3,11,.5.5,0,0,1,2.5,10.5Zm8-2A.5.5,0,1,1,11,9,.5.5,0,0,1,10.5,8.5Zm-2,0A.5.5,0,1,1,9,9,.5.5,0,0,1,8.5,8.5Zm-2,0A.5.5,0,1,1,7,9,.5.5,0,0,1,6.5,8.5Zm-2,0A.5.5,0,1,1,5,9,.5.5,0,0,1,4.5,8.5Zm-2,0A.5.5,0,1,1,3,9,.5.5,0,0,1,2.5,8.5Z" transform="translate(0 4.818)"/>
  </g>
</svg>
